<svg xmlns="http://www.w3.org/2000/svg" width="393.142" height="112.005" viewBox="0.03 0.495 393.142 112.005"><path fill="#A9165F" d="M68.585 7.923c-.187-.562-.312-1.123-.436-1.623-.5.312-1.062.437-1.374.812-1.997 2.995-4.12 5.74-5.616 8.923-2.122 4.804-3.62 9.67-5.49 14.6-.126.063-.126.438-.19.75.19-.188.438-.312.5-.5 3.62-5.927 7.364-11.792 10.795-17.782 1.062-1.56 1.31-3.495 1.81-5.18m52.1 34.318c-.186-1.496-.06-2.994-.56-3.93-.5-1.06-1.56-2.31-2.62-2.62-.688-.313-2.372.31-2.87.997-1.998 2.56-3.12 5.49-1.873 8.673.81 2.06 2.06 3.93 3.432 5.865.687 1 1.872.812 2.308-.436.687-2.933 1.436-5.803 2.184-8.55m248.026-11.666c-1.497.998-4.056 1.872-5.304 3.62-2.808 4.055-4.93 8.485-7.362 12.853-.188.312 0 .81 0 1.123.437-.063.81-.063 1.123-.312 2.993-1.56 5.99-3.058 8.797-4.93 2.87-1.872 4.867-4.617 5.99-7.986.81-1.5-.874-4.244-3.245-4.368M201.615 38.56c.5 3.62.312 7.613 3.12 10.545.81.812 1.872 1.498 2.808 2.12.437-.997.812-2.058 1.123-3.056.063-.313.188-.5.312-.813 1.498-5.117 1.997-10.295.687-15.6-.437-1.56-1.997-2.37-3.307-1.496-2.435 2.185-3.995 4.93-4.743 8.3m55.782-32.446c-.25-.75-.562-1.872-.812-1.872-.686-.062-1.622.312-2.06.81-1.996 2.31-4.055 4.556-5.864 6.99-3.806 5.49-5.927 11.854-8.423 17.97-.063.31.062.685.187.997.312-.063.562-.313.936-.5 6.614-4.805 10.607-11.357 13.915-18.532.81-1.933 1.373-3.93 2.122-5.864m34.13 9.048c-6.863-.437-13.415.312-19.59 3.307-.438.187-1.312.06-1.5-.188-.436-.562-.81-1.623-.56-2.06.81-1.31 1.81-2.87 3.057-3.37 3.37-1.06 6.926-1.995 10.482-2.495 3.058-.437 6.178-.437 9.297 0 4.618.562 9.173 1.56 13.603 2.62 5.304 1.312 10.482 2.81 15.724 4.12 1.123.31 2.37.56 3.557.498.5 0 1.123-.686 1.498-1.123 2.31-4.305 4.43-8.486 6.49-12.854.686-1.56 1.81-2.122 3.306-2.06 1.81 0 2.56 1 1.998 2.622-1.062 3.12-2.37 6.364-3.557 9.484-.31.81-.686 1.56-.936 2.372-.81 2.558-.81 2.995 1.872 2.995 6.49.063 13.04.812 19.28-2.308 4.368-2.12 8.924-4.118 13.354-6.115.5-.188 1.06-.5 1.56-.5.437 0 .936.312 1.31.437-.31.312-.498.562-.81.936-4.43 4.368-9.983 6.676-15.725 8.548-3.432 1.123-6.927 2.122-10.482 3.307-.687.187-1.373.187-2.06.312-3.432 0-6.988 0-10.482.062-.56 0-1.496.56-1.62 1.122-3.87 9.297-7.987 18.532-10.047 28.453-.562 3.058-1.31 6.115-1.56 9.172-.312 4.368 3.37 6.677 7.487 5.367 4.118-1.498 7.425-3.932 10.107-7.363 2.87-3.43 6.115-6.613 9.173-9.982.5-.562.998-1.31 1.062-1.997 1.123-6.675 4.055-12.353 9.296-16.72 3.62-3.06 7.8-4.868 12.604-3.807 1.372.312 2.994.437 4.056 1.123.937.562 1.56 2.06 1.81 3.307.5 3.058-.562 5.616-2.37 8.174-4.057 5.866-9.86 8.923-16.41 10.98-.688.19-1.56 1.562-1.56 2.373 0 3.37.06 6.863.498 10.108.312 2.31 3.806 4.618 6.427 4.93 5.43.5 10.482-.687 15.1-3.432 5.304-3.307 10.483-6.49 14.913-10.857.5-.5 1.31-.5 1.996-.812-.312.687-.437 1.498-.81 1.997-1.873 2.122-3.807 4.43-5.866 6.427-4.056 3.87-8.424 6.99-13.665 8.674-3.306 1.06-6.613 2.06-9.857 2.87-3.12.81-9.297-1.997-11.294-4.555-2.996-3.93-4.618-8.423-5.118-13.29 0-.312-.062-.687-.187-1-.312.19-.5.438-.812.563-2.558 2.62-4.93 5.616-7.8 7.925-4.554 3.556-8.484 8.174-14.413 9.546-6.364 1.497-9.796.062-11.605-6.364-1.123-3.93-.686-7.925 0-11.793.062-.437.187-.812.187-1.124-.312.188-.81.437-.998.687-1.498 2.06-2.87 4.368-4.43 6.427-2.56 3.432-5.116 6.99-8.05 10.046-1.996 2.06-4.305 4.056-7.424 4.617-3.37.56-7.488-1.56-7.674-4.617-.188-3.557.187-7.176.437-10.794 0-.5.187-.937.312-1.374-.312.312-.687.562-.998.936-3.308 3.87-6.427 7.8-9.67 11.543-1 1.06-2.123 2.06-3.37 2.87-4.12 2.62-7.988 1.124-9.486-3.43-1.62-5.117-1.122-10.36.313-15.413.062-.437.062-.81.187-1.123-.312.186-.686.498-.936.686-4.368 4.93-8.486 10.045-13.103 14.85-2.62 2.62-5.927 4.93-9.296 6.926-3.557 2.06-7.613 0-9.86-3.307-2.495-3.432-2.87-7.675-2.994-11.918-.188-4.804.5-9.297 1.81-13.79.06-.312 0-.687 0-1.06-.313.187-.687.31-1 .498-2.496 1.56-4.93 3.12-7.487 4.618-2.31 1.31-4.93 2.06-6.864 3.806-1.56 1.372-2.31 3.618-3.308 5.49-2.62 4.93-5.927 9.422-10.545 12.542-4.867 3.37-8.798 3.868-13.602-.812-2.87-2.62-4.12-5.865-4.368-9.484-.187-3.12.437-6.365.686-9.547 0-.188.063-.438.063-.563-.063.187-.312.312-.437.5-1.81 2.37-3.37 4.866-5.43 6.987-3.806 3.93-7.487 8.05-11.793 11.544-3.307 2.62-7.363 4.43-11.605 4.554-5.99.062-11.917-5.116-13.04-11.48-.812-4.306-2.06-8.486-1-12.917 0 0-.686-.438-.935-.312-1.622.936-3.37 1.81-4.867 2.87-2.56 1.623-5.43 1.997-8.424 1.56-1.498-.188-2.122.437-2.995 1.622-2.308 3.93-4.554 7.8-7.174 11.48-2.31 3.12-5.304 5.93-8.985 7.364-1.372.498-3.057.498-4.554.436-1.498-.187-2.995-.686-4.368-1.373-.562-.187-1-1.06-1.123-1.622-.312-.686-.188-1.56-.562-2.308-1.56-2.62-2.37-5.49-2.122-8.673.19-3.308.5-6.49.813-9.797 0-.312.062-.5.062-.81-.188.06-.562.186-.687.436-1.06 1.56-2.372 3.056-3.308 4.616-3.12 5.366-6.177 10.982-10.98 14.976-2.372 1.997-5.492 3.057-8.487 4.305-1.498.562-3.806-1.31-4.555-3.37-1.872-4.367-1.31-8.672-.188-12.915 1.623-6.864 3.62-13.415 5.43-20.092 0-.062.186-.312.186-.437v-2.808c-.687.312-1.56.5-2.12 1-3.87 3.306-7.676 6.488-11.357 9.982-1.998 1.872-3.808 4.056-5.492 5.99-3.37 3.806-4.805 8.423-6.115 13.103-.562 1.997-1.123 3.87-1.996 5.74-.562 1.5-3.932 2.81-5.43 2.123-1.31-.5-1.622-2.56-1.122-4.556 1.373-5.49 2.808-11.043 4.118-16.535.062-.312.062-.5.187-.81-.187.186-.5.31-.56.498-2.747 5.74-7.114 9.86-11.108 14.164-3.432 3.618-7.363 6.864-12.792 7.487-6.49.937-13.415-2.495-14.226-8.048C.198 61.397-.426 54.97.448 48.98c.81-6.115 3.432-11.918 7.3-16.66 2.06-2.62 4.305-5.304 6.677-7.612 4.804-4.617 13.415-4.555 17.283.437 2.122 2.87 2.62 6.49 2.122 10.046-.063.437-1.124 1-1.373.937-.687-.5-1.373-1.06-1.623-1.872-.5-1.31-.5-2.62-.81-3.93-1-3.433-5.055-4.556-7.8-2.123-5.616 4.742-9.11 10.92-10.982 17.908-1.06 3.868-2.37 7.8-2.496 11.792-.062 3.557 1.06 7.176 2.06 10.607.81 2.62 3.12 3.43 5.864 2.495 3.806-1.498 6.49-3.93 8.923-7.363 2.62-3.87 5.74-7.363 8.548-11.044 3.932-5.054 8.175-9.983 11.606-15.35 1.872-2.995 2.31-6.864 3.62-10.046 2.06-4.93 4.367-9.983 6.863-14.725 1.56-2.995 3.556-5.74 5.615-8.3 1.498-1.81 3.807-2.37 6.115-2.308 1.56.06 2.31.935 2.56 2.308 1.06 4.555-.438 8.673-2.497 12.417-3.12 5.865-6.988 11.294-10.545 16.785-.686 1.06-1.497 2.122-2.496 2.87-2.31 1.81-2.87 4.43-3.557 6.988-.5 1.81-1 3.557-1.498 5.304-.063.312-.063.5-.187.81.312-.06.686-.06.936-.31.81-.687 1.497-1.5 2.12-2.31 4.62-5.49 9.86-10.544 16.1-14.413 1.123-.688 2.495-1.374 3.868-1.81 3.93-1.31 6.427.81 5.928 4.93 0 2.308-.5 4.304-1.06 6.176-1.997 6.364-4.306 12.542-5.99 18.968-.812 3.058-.812 6.365-.937 9.484-.062 1.81 1.31 2.496 2.496 1.31 3.12-3.12 6.428-6.427 9.048-10.046 3.87-5.116 7.176-10.544 10.857-15.91 2.06-3.06 3.807-6.178 6.115-9.048 1.123-1.373 3.12-2.31 4.93-2.995 1.123-.5 1.87.436 1.372 1.62-1.123 2.87-2.31 5.866-3.557 8.55-3.37 6.988-5.053 14.413-5.116 22.088 0 1.497.685 3.37 1.62 4.555 2.56 2.808 4.307 2.62 6.99.062 4.305-3.87 6.988-8.672 9.546-13.79.437-.81.5-1.498-.5-2.31-2.558-1.87-5.054-3.867-5.927-7.175-1.374-4.866-.313-14.102 5.926-17.034 3.308-1.56 7.425-.312 8.55 3.806 1.87 5.99.997 11.918-.937 17.783-.563 1.81.186 1.872 1.496 2.06 5.367.56 9.297-2.31 13.416-4.868.312-.188.5-.687.562-1.06 1.06-5.43 4.118-9.672 7.675-13.603 3.43-3.87 7.362-7.363 12.104-9.422 2.558-1.06 4.804-.998 6.988.937 3.62 2.87 5.43 6.426 5.117 11.043 0 .5 0 .998-.188 1.498-.187.5-.687.812-1.06 1.31-.438-.436-1-.81-1.124-1.31-.562-2.058-1.06-4.055-1.498-6.114-.436-2.62-2.558-3.87-5.053-2.56-3.37 1.873-5.866 4.43-7.987 7.676-3.62 5.616-6.178 11.606-7.176 18.158-.687 4.617-.312 9.484 2.87 13.54 2.62 3.432 8.486 3.806 11.855 1.498 5.99-4.056 11.043-8.986 15.1-15.1 5.053-7.238 9.983-14.414 14.913-21.652.81-1.06 2.12-1.81 3.37-2.496.498-.312 1.622-.063 1.87.312.313.5.063 1.497-.187 1.997-3.556 5.864-5.865 11.917-6.863 18.593-.437 2.995-.998 5.99-1.622 8.923-.81 3.556 0 6.864 1.498 10.046.687 1.498 3.058 1.81 5.304.5 3.557-2.122 6.427-5.118 8.548-8.674 1.373-2.122 2.496-4.43 3.62-6.677.186-.5.06-1.56-.188-1.622-3.307-1.872-5.054-4.93-5.928-8.424-.873-3.494-2.06-6.926-.936-10.544 1.872-5.43 5.49-8.798 10.98-10.296 1.873-.5 3.37.687 4.307 2.496 1.872 3.87 1.81 7.924.998 11.855-.686 3.557-1.81 7.113-2.62 10.607-.063.312 0 .81.187 1 .062.06.686.06.936-.063 3.432-1.873 7.113-3.558 10.357-5.867 2.808-1.872 4.805-4.617 5.99-7.987 2.06-5.74 4.306-11.543 7.114-16.972 3.058-6.115 6.864-11.917 11.793-16.785 2.308-2.123 5.054-3.058 8.173-2.996 1.81 0 3.12 1.997 3.12 4.118.062 4.306-1.81 7.987-3.556 11.606-1.498 3.058-3.37 6.115-5.43 8.798-2.307 2.87-4.93 5.428-7.486 7.986-1.123 1.123-2.558 2.122-3.868 3.12-2.87 2.122-2.808 5.616-3.62 8.548-.998 3.307-1.497 6.614-1.87 9.984-.563 4.93-.5 9.858 1.372 14.6.936 2.122 2.808 2.996 4.617 1.56 2.81-2.058 5.617-4.304 7.988-6.863 5.054-5.116 9.983-10.482 14.725-15.973 1.623-1.872 2.496-4.43 3.87-6.49 3.37-5.303 7.362-9.983 13.54-12.042 5.74-1.872 7.175-1.123 10.856 3.12.998 1.124 1.06 3.058 1.31 4.805.06.5-.687 1.06-1.062 1.623-.5-.437-1.123-.812-1.497-1.373-.56-.998-.81-2.12-1.372-3.057-1.373-2.31-3.058-2.558-5.367-1.06-4.616 3.057-7.174 7.674-9.42 12.54-1.81 3.933-3.806 7.926-4.805 11.92-.936 3.368-.686 6.987-.56 10.482 0 1.56 1.496 1.997 2.557.81 2.87-3.057 5.74-5.99 8.174-9.42 2.996-4.056 5.367-8.486 8.05-12.605.81-1.31 1.81-2.496 2.808-3.432.562-.562 1.622-1.123 2.122-1 1.497.563 2.62 1.5 1.996 3.557-1.497 4.43-3.057 8.985-4.055 13.54-.812 3.37-.812 6.927-1 10.296-.06 1.623 1.31 2.497 2.87 1.374 2.81-1.81 5.617-3.62 7.676-6.178 3.307-4.056 5.927-8.673 8.797-13.103 2.87-4.43 5.74-8.923 8.173-13.603 1.998-3.62 3.433-7.612 5.117-11.48.562-1.125 1.06-2.497 1.81-3.558.56-1 .312-1.56-.81-1.81-8.674-2.122-17.41-4.368-26.02-6.427-1.558-.43-3.367-.18-5.052-.243"/><g fill="#5A3311"><path d="M144.71 94.78l.436.187 1.06-.188c.812.06 1.062.31 1.062.56v1c0 4.617-.063 7.986-.437 9.982.063.812.188 1.623.188 2.62v2.31c0 .687-.187 1-.56 1.06h-.438c-.5 0-1.123-.06-2.06-.186-.187.062-.5.187-.998.187l-.437-.562v-2.62c0-3.12.062-7.61.188-13.353.062-.623.81-.935 1.996-.998zm.123-10.234c1.623.188 2.496 1.06 2.496 2.496 0 1.498-.812 2.31-2.497 2.31-.81 0-1.497-.5-2.06-1.5v-1.06c.313-1.496 1-2.246 2.06-2.246zM156.814 94.78H157c2.372 0 4.556.997 6.428 2.87v.187c-.81 1.373-1.497 2.31-2.06 2.62-.31 0-1.496-.56-3.556-1.87h-.187c-.062 0-.5.06-1.06.186v.562c.187.436 1.622 1.56 4.555 3.556 1.06 1.5 1.622 2.997 1.622 4.37v.56c0 1.562-1.31 2.87-3.806 3.932l-1.623.188c-1.872 0-3.87-.998-5.99-3.057l1.622-2.87h.438c.312 0 1.498.56 3.37 1.62.187.063.5.19.81.19.812-.313 1.062-.813 1.062-1.5-.438-.56-2.122-1.995-5.304-4.116-.56-1.123-.935-1.873-.935-2.31v-.56c0-2.497 1.06-3.87 3.12-4.37 0-.063.435-.188 1.31-.188zM179.027 84.796h3.12c.063 0 .312.312.562.812l-.188 1.31v2.06c0 1.56-.063 3.43-.187 5.428.062.686.187 1.372.187 2.31 1.497-1 3.37-1.498 5.43-1.498h.56c2.995 0 4.555 3.057 4.555 9.172-.062 1.56-.187 3.058-.187 4.555v3.37l-.936.187h-2.87l-.437-.188c0-.5.062-1.622.187-3.37-.187-6.488-.5-9.796-.936-9.796h-.686c-.688 0-2.122.937-4.555 2.62-.063 2.622-.188 4.806-.188 5.992v4.117c0 .312-.313.5-.937.562-2.12-.063-3.12-.313-3.12-.563V98.523c0-2.37-.062-4.93-.187-7.675.063-.5.187-2.37.187-5.615l.624-.437zM204.984 94.53c3.37 0 5.865 2.12 7.363 6.613v.937c-1.31.81-4.555 2.12-9.984 4.367 0 .688 1 1.498 2.995 2.31h.437c.562 0 2.06-.998 4.555-2.87h.562c.062 0 .687.686 1.622 2.06v.436c-2.06 2.62-4.617 3.93-7.674 3.93h-.437c-2.62 0-4.93-1.808-6.863-5.428-.437-1.81-.562-3.057-.562-3.806 0-2.81 1.372-5.305 4.118-7.488 1.247-.75 2.495-1.062 3.868-1.062zm-3.682 7.3v1.31l6.927-2.87c-.563-1.56-1.374-2.495-2.497-2.495h-.562c-2.557 1.122-3.868 2.432-3.868 4.055zM224.452 94.53h.56c3.12.312 4.806 1.31 4.806 2.87-1.123 1.56-1.872 2.37-2.06 2.495-1.31-.936-2.308-1.31-3.057-1.31-2.495 0-3.805 1.997-3.805 5.865v7.487c0 .312-.188.437-.562.437-.5 0-1.622-.062-3.37-.187-.06-2.37-.187-4.057-.187-5.054v-1.312c0-2.494.062-5.99.188-10.793 1.498-.062 2.558-.188 3.12-.188h.187c.438 0 .562.437.562 1.06h.188c1.372-.996 2.433-1.37 3.432-1.37zM239.427 94.53c3.37 0 5.866 2.12 7.363 6.613v.937c-1.31.81-4.555 2.12-9.984 4.367 0 .688 1 1.498 2.995 2.31h.438c.56 0 2.06-.998 4.555-2.87h.562c.062 0 .686.686 1.622 2.06v.436c-2.06 2.62-4.618 3.93-7.675 3.93h-.437c-2.62 0-4.93-1.808-6.864-5.428-.436-1.81-.56-3.057-.56-3.806 0-2.81 1.372-5.305 4.118-7.488 1.186-.75 2.433-1.062 3.87-1.062zm-3.682 7.3v1.31l6.926-2.87c-.56-1.56-1.37-2.495-2.495-2.495h-.56c-2.622 1.122-3.87 2.432-3.87 4.055z"/></g><path fill="#5A3311" d="M4.566 102.517H132.54v1.123H4.567zM256.773 102.517h127.975v1.123H256.773z"/></svg>
