<svg xmlns="http://www.w3.org/2000/svg" width="593.559" height="125.823" viewBox="0 0 593.559 125.823"><path fill="#FAF4E0" d="M526.64 65.59c-2.145-3.356-2.533-7.27-1.385-11.06.595-1.963 2.36-4.972 4.512-2.1.936 1.248 1.046 3.16 1.067 4.638.023 1.584-1.977 9.965-4.804 7.103-1.404-1.422-.777-4.54-.495-6.27.152-.933.39-1.85.692-2.743.225-.61.486-1.203.785-1.78.78-1.622.204-.81.49-.4 1.262 1.806 1.34 4.82 1.26 6.906-.046 1.157-.29 2.507-.938 3.487 1.233.2 1.608.032 1.124-.506-.264-.395-.36-.96-.477-1.41-.546-2.14-.415-4.983 1.157-6.656-.794.136-1.588.27-2.382.407 2.15 1.692 1.21 6.594-.193 8.502.91.025 1.818.05 2.728.077-1.46-3.11-.882-7.182.73-10.13l-2.902.2c.21 1.04.87 6.282-.595 6.792-1.772.617-1.238 2.763.572 2.133 3.783-1.318 3.65-6.432 2.98-9.72-.28-1.38-2.45-.62-2.9.202-1.774 3.248-2.454 7.887-.845 11.315.48 1.022 2.09.944 2.728.077 2.097-2.848 3.1-8.74-.035-11.21-.716-.564-1.828-.183-2.382.406-2.46 2.618-2.453 7.272-.884 10.345.536 1.05 2.014 1.504 3.05.922 1.573-.883 1.943-2.607 2.328-4.254.66-2.83.248-9.392-3.068-10.567-4.104-1.454-5.698 5.786-6.13 8.42-.597 3.657-.133 8.058 4.372 8.14 5.513.1 7.275-7.38 6.97-11.566-.317-4.38-4.54-8.983-8.794-5.505-4.787 3.914-3.978 12.536-1.037 17.135.76 1.188 3.567.02 2.703-1.33zM546.79 64.217c1.558-3.22 2.754.586 2.05-.678-.12-.22-.193-.47-.27-.708-.205-.62-.298-1.278-.375-1.924-.085-.717-.08-1.442.033-2.155.043-.268.136-.515.242-.762-1.133.118-1.378.328-.734.63.294.178.513.424.658.74.498.94.19 2.24-.075 3.193-.37 1.328-.657 2.133-1.26.517-.407-1.088-.15-2.396.138-3.472.14-.523.385-1.006.713-1.436.23-.214.48-.4.75-.562-.766-.066-.98.027-.64.278.76.712.26 2.584.047 3.4-.166.635-.432 1.237-.74 1.813-.153.285-.36.527-.572.765-.15.17.86.127.105-.547-2.012-1.798.458-6.97 2.79-5.55 1.76 1.07 1.123 6.26-.925 6.71.545.06 1.09.12 1.634.178-.38-1.29-.29-2.544-.062-3.86.08-.458 1.366-4.717 2.155-4.224 1.575.984.984 4.217.5 5.58-.147.417-.385.826-.733 1.107.78-.63 1.177.205.58-.438-.484-.522-.56-1.522-.63-2.186-.187-1.68.126-3.508.893-5.014.49-.964.5-.092-.136-.312.402.14.765.532.99.873.48.72.516 1.696.503 2.525-.013.883-.274 1.777-.556 2.606-.12.352-.28.687-.443 1.02-.835 1.714-.518-.435 1.024.574-.548-.36-.528-1.7-.575-2.238-.072-.84-.027-1.685.075-2.52.12-.976.825-1.26-.177-1.553 2.406.704 1.468 4.46.535 5.815l2.74-.588c-1.346-1.38-1.505-5.19-.424-6.697-.662.92-.11 2.333-.284 3.562-.14.976-.448 2.15-1.138 2.885l2.74-.588c-.703-.732-.785-1.75-.81-2.716-.017-.576.115-1.124.273-1.67.277-.95-1.707-.54-.893.237.774-.407 1.55-.814 2.323-1.222-2.05-.097-3.52-1.845-5.688-1.762-1.503.058-2.94.782-4.123 1.655-2.686 1.98-4.98 6.588-3.545 9.85.376.854 3.262-.106 2.96-.793-1.06-2.406.087-5.187 1.464-7.225.875-1.297 1.797-2.338 3.38-1.708 1.29.513 2.236 1.287 3.675 1.355.335.016 3.075-.504 2.323-1.222-3.45-3.296-6.835 3.46-4.11 6.29.58.605 2.288-.104 2.74-.587 1.905-2.032 2.714-8.084-1.47-7.43-3.82.6-4.696 6.263-2.167 8.854.54.55 2.367-.043 2.742-.588 1.425-2.072 2.034-7.504-1.988-7.15-4.113.364-4.852 4.57-3.823 8.052.812 2.745 4.397.044 5.154-1.334 1.322-2.407 1.823-6.395-1.03-7.83-2.717-1.364-5.21 1.42-5.83 3.722-.436 1.615-.984 6.586 1.7 6.73 3.422.183 5.065-2.5 5.19-5.6.155-3.822-3.38-4.963-6.23-2.708-2.53 2.002-3.66 6.187-2.757 9.26.158.538 1.3.25 1.634.178 3.56-.783 6.038-5.463 3.72-8.62-2.377-3.242-8.042 1.09-9.325 3.273-1.827 3.11 1.59 5.64 4.423 4.548 2.39-.922 3.338-3.69 3.473-6.048.172-2.992-2.782-2.722-4.72-1.587-2.474 1.45-4.42 7.106-.845 8.403 3.797 1.377 6.24-3.683 5.723-6.63-.49-2.78-4.77-2.524-5.945-.508-.892 1.53-.338 4.38.347 5.882.713 1.562 3.25.657 3.846-.574.31-.638-2.536-.362-2.935.464zM575.605 60.512l-.528.622 2.58-.265c-.63-.942-.977-2.077-1.3-3.152-.198-.652-.324-1.32-.425-1.994-.055-.365-.065-.73-.033-1.098.18-.375.1-.493-.24-.355 1.543 1.367 1.13 5.634.18 7.242l2.763-.51c-1.073-.978-1.434-2.623-1.705-3.99-.173-.873-.177-1.745-.038-2.62.205-1.29.494-.29.683.437.604 2.333.077 6.414-1.19 8.5l2.76-.508c-.84-1.3-.977-3.238-1.04-4.737-.037-.933.053-1.86.256-2.77.11-.496.63-.81-.058-.804.398-.002.63.386.826.664 1.688 2.39.435 7.563-.373 10.128l2.982-.285c-.09-3.79-.726-7.674.486-11.348-.883.312-1.765.625-2.647.94 2.88 2.035 1.107 7.696 1.354 10.68.102 1.23 2.786.428 2.97-.54.446-2.336.366-4.71.642-7.065l-2.97.54c.924 2.244.688 4.687 1.857 6.855.53.985 2.66.112 2.853-.765 1-4.525-2.24-9.69-5.722-12.314-1.608-1.21-3.57-1.512-5.435-.768-2.354.94-2.92 3.918-3.148 6.116-.146 1.397 2.857.912 2.982-.285.08-.79.304-4.157 1.47-4.31 1.236-.16 2.796 1.64 3.5 2.417 2.167 2.393 4.1 6.127 3.37 9.432l2.854-.765c-1.067-1.98-.772-4.34-1.624-6.405-.453-1.1-2.84-.58-2.97.54-.276 2.354-.196 4.728-.642 7.064l2.97-.54c-.3-3.637 1.58-8.95-2-11.48-.83-.59-2.35.036-2.646.94-1.21 3.67-.576 7.564-.486 11.347.036 1.52 2.648.776 2.982-.285 1.035-3.29 2.765-11.814-2.36-12.463-5.577-.707-4.82 8.63-2.958 11.512.575.89 2.345.178 2.762-.51 1.462-2.405 3.277-10.82-.656-11.81-5.957-1.498-5.51 7.863-2.615 10.5.76.692 2.253.355 2.763-.508 1.374-2.327 1.8-10.364-2.707-9.62-4.843.796-2.91 7.147-1 9.996.555.83 2.033.2 2.578-.265.454-.386.593-.59.894-1.11.78-1.36-2.223-1.23-2.803-.228zM561.657 87.72c-.133 2.063-.218 4.083-.75 6.09.888-.185 1.775-.368 2.664-.55-.967-3.505-1.246-7.127-1.896-10.694-.89.24-1.78.477-2.672.716.596 2.78 1.134 5.566 1.594 8.37.132.805 2.534.12 2.665-.55.776-3.954-.24-7.917.072-11.9-.89.185-1.776.368-2.665.55 1.804 3.663 1.123 7.77 1.98 11.66.187.853 2.47.07 2.664-.55 1.314-4.173-.034-8.557.135-12.823l-2.672.715c1.073 3.815 1.362 7.755 1.98 11.656.123.774 2.605.15 2.666-.55.36-4.124-.14-8.19-.532-12.295-.89.24-1.78.477-2.672.716 1 3.81.626 7.76 1.362 11.61.15.784 2.587.144 2.665-.55.392-3.476-.47-6.888-.367-10.367-.89.24-1.78.477-2.672.716 1.142 3.013.733 6.712-.225 9.716-.242.76-.614 1.453-1.088 2.09-1.005 1.354-2.803-1.092-3.212-1.912-1.064-2.135-.215-4.968.557-7.052.632-1.71 2.936-6.793 4.646-3.675 1.07 1.947.944 4.77.376 6.83-.53 1.924-1.56 3.732-2.748 5.316-.306.408-1.045 1.322-1.263 1.157-.848-.642-.91-2.368-1.024-3.292-.093-.763-2.782-.182-2.672.716.317 2.59 1.218 4.83 4.173 3.875 2.603-.84 4.153-3.568 5.295-5.867 1.398-2.818 2.217-7.384.164-10.104-1.73-2.293-4.717-1.225-6.514.423-3.883 3.56-7.163 16.064 1.52 15.314 5.724-.495 6.178-10.312 4.684-14.254-.32-.85-2.648-.112-2.672.716-.1 3.365.76 6.672.38 10.035l2.666-.55c-.735-3.85-.36-7.8-1.362-11.61-.214-.814-2.754-.136-2.672.717.382 3.99.895 7.952.545 11.965l2.666-.55c-.62-3.9-.907-7.84-1.98-11.656-.243-.86-2.64-.1-2.673.717-.165 4.152 1.155 8.436-.12 12.492.89-.185 1.776-.368 2.665-.55-.855-3.892-.176-7.998-1.98-11.66-.348-.708-2.604-.21-2.664.55-.31 3.97.7 7.966-.07 11.9l2.664-.55c-.46-2.805-.998-5.592-1.594-8.37-.17-.8-2.828-.142-2.672.715.65 3.567.93 7.19 1.897 10.693.228.83 2.49.104 2.664-.55.534-2.007.62-4.026.75-6.09.063-.965-2.607-.4-2.657.382z"/><path fill-rule="evenodd" clip-rule="evenodd" fill="#C5B081" d="M564.286 75.274c1.28.012 2.595.664 3.495 1.76.675 2.262.992 4.037 1.58 6.345-.446 4.747-2.015 8.875-6.39 11.438-1.013-.387-1.966.666-2.9-.146.095-.1.177-.204.194-.39-5.268-4.28-1.902-14.392 1.214-17.883.468-.14.926-.286 1.094-.815.63-.023 1.166-.167 1.714-.31zm-.667 17c5.192-2.854 5.12-11.805 1.557-15.477-4.792-.06-4.896 5.308-6.033 8.99.022 1.283-.215 3.182.33 5.33.702.322.695 1.18 1.304 1.567.505-2.458 1.627-5.188 2.088-7.608.12-.668-.19-2.853.604-3.248 1.222-.61 1.236.435 1.073 1.267-.293 1.412-.585 3.883-.736 5.035-.513 1.067-1.66 4.215-1.454 5.206.416.143 1.25-.678 1.266-1.062z"/><path fill="#FAF4E0" d="M536.802 77.15c-1.468 1.404-4.167-1.087-3.05-2.835.053-.08.475-.548.63-.625-.7.35-.92-.142-.523.23.338.316.47.816.584 1.25.234.883.236 1.87-.06 2.738-.215.628 2.04.18 1.263-.614-.657-.672-1.087-1.622-1.375-2.5-.316-.963-.243-2.138.237-3.033l-.405.153c.428.28.8.62 1.117 1.02.354.387.47 1.073.58 1.563.163.71.254 1.68-.092 2.355.85-1.66 1.947.048.908-1.198-.298-.357-.376-.966-.46-1.404-.153-.815-.054-1.648.175-2.437.215-.736-.728-.452-.177-.024.434.337.63.905.81 1.4.58 1.587.776 4.337-.383 5.724l2.752-.547c-1.465-1.5-1.926-4.427-1.672-6.416.038-.236.095-.467.173-.693.335-.396.22-.527-.342-.394.406.15.705.65.938.982.72 1.032 1.023 2.435 1.18 3.66.062.5.024.987-.085 1.477-.31.555.036.53 1.037-.077-.205-.12-.378-.277-.52-.468-.8-.89-1.143-2.48-1.105-3.645.013-.204.05-.403.112-.598.296-.3.132-.42-.49-.362.39.293.56.836.718 1.273.374 1.037.49 2.306.1 3.346.985-.195 1.972-.388 2.958-.582.128-1.175-.19-1.21-.952-.105.762.61 2.514.17 2.854-.765.112-.305.223-.61.33-.918.36-1.005-2.604-.623-2.958.37-.108.306-.22.612-.33.917l2.853-.765c-1.94-1.55-5.295-.893-4.755 2.058.208 1.137 2.688.135 2.96-.58.628-1.664.187-4.11-1.03-5.412-1.437-1.54-3.887.03-4.872 1.247-1.18 1.457-.167 4.02.65 5.387 1.02 1.71 3.73 1.627 4.95.165 1.208-1.452.415-4.03-.202-5.558-.72-1.784-2.1-3.13-4.132-2.63-4.353 1.07-3.68 7.615-1.115 10.242.69.708 2.233.073 2.75-.547 1.688-2.016 1.43-6.902-.686-8.546-2.61-2.03-5.527.77-5.524 3.44.002 1.49.345 2.782 1.55 3.73 1.034.812 2.824.46 3.64-.51 1.846-2.184-.28-7.082-3.22-6.987-4.017.13-4.74 4.11-3.025 7.146 1.093 1.936 3.245 2.84 4.954.907 1.03-1.167.623-3.754-.1-4.95-1.25-2.075-4.095-.853-5.428.463-1.766 1.743-1.137 3.753.858 4.902 2.093 1.205 5.118.696 6.818-.93 1.25-1.196-1.672-1.164-2.376-.492z"/><path fill-rule="evenodd" clip-rule="evenodd" fill="#C5B081" d="M529.158 76.782c.4-1.33.378-2.96.845-3.908l.413.062c3.373-4.72 10.373-5.46 14.64-.377.974 2.36-.23 4.21-1.647 5.605-2.21 1.397-4.66 3.3-6.99 3.15-.826-.8-2.48-.753-3.983-1.276-1.77-.62-2.566-2.045-3.28-3.258zm10.227-6.29c-1.09-.29-2.01.44-2.92-.012-.305.513-1.122.348-1.385.913-1.543.266-3.232 1.256-3.855 2.637-.536 1.184-.4 3.33.767 4.28 1.288 1.03 4.792 1.248 5.48 1.493-.028-.583.47-.46.668-.74.583-.032.603.36 1.042.428 1.244-1.155 3.15-1.95 4.292-3.68-.7-.245-1.112.277-1.87.422-.963.186-2.053-.12-3.054-.027-1.13.114-2.157.66-2.604.728-.862.137-1.508-.417-2-.562-.046-.43.29-.364.25-.8 4.098-1.185 6.432-.236 9.71-1.778-1.147-1.165-2.793-2.84-4.52-3.3z"/><path fill="#FAF4E0" d="M581.85 81.83c-.324-1.318-.55-2.646-.776-3.984-.122-.72-2.735.102-2.94.65-.32.855-.584 1.704-.77 2.6.98-.218 1.96-.434 2.94-.65.07-1.277.36-2.262.89-3.4l-2.94.65c.675 2.064.27 4.17.63 6.28.14.828 2.656-.246 2.94-.65 1.247-1.776 1.223-4.08 1.673-6.135-.98.218-1.96.434-2.94.65.294 2.67-.307 5.355.382 7.982.19.734 2.733-.093 2.94-.65.81-2.182.76-4.53 1.377-6.762l-2.94.65c.828 2.387-.26 4.85.49 7.23.233.742 2.72-.093 2.94-.65.765-1.93.85-4.004 1.45-5.98-.978.218-1.96.434-2.94.65.513 2.394.313 4.807.495 7.23.05.657 2.763-.058 2.94-.65.54-1.793.643-3.673 1.37-5.41l-2.855.764c1.08 1.366.652 3.31 1.115 4.895.21.715 2.76-.068 2.94-.65.237-.767.65-1.434.905-2.19-.98.216-1.96.432-2.94.65.354.742.663 1.438.83 2.25.138.666 2.85-.03 2.94-.65l.084-.563c.114-.768-2.813-.226-2.923.507l-.082.562 2.94-.65c-.167-.81-.475-1.507-.83-2.25-.335-.697-2.734.03-2.942.65-.254.757-.667 1.424-.904 2.19l2.94-.65c-.512-1.752-.098-3.62-1.29-5.124-.437-.554-2.617.2-2.853.765-.728 1.738-.83 3.617-1.37 5.412.98-.218 1.96-.434 2.94-.65-.18-2.425.02-4.838-.493-7.23-.15-.71-2.766.072-2.94.65-.602 1.974-.688 4.05-1.45 5.978l2.94-.65c-.752-2.38.337-4.843-.492-7.23-.244-.704-2.775.048-2.94.65-.615 2.23-.568 4.583-1.378 6.762l2.94-.65c-.687-2.627-.086-5.312-.382-7.98-.07-.65-2.806.032-2.94.65-.45 2.055-.426 4.357-1.673 6.134l2.94-.65c-.358-2.11.045-4.216-.63-6.28-.25-.763-2.692.115-2.94.65-.564 1.21-.854 2.357-.927 3.685-.03.522 2.798.04 2.94-.65.187-.896.45-1.745.77-2.6l-2.94.65c.227 1.337.452 2.666.775 3.984.172.693 3.138-.072 2.96-.794z"/><path fill-rule="evenodd" clip-rule="evenodd" fill="#C5B081" d="M593.498 85.332c-.016.222-.138.51.06.562-1.218 1.405-1.746 2.904-3.143 3.438-.88.34-2.07.826-3.15.65-.234-.03-.463-.456-.757-.524-5.433-1.233-12.262-6.644-9.594-12.37 1.744-1.857 5.18-2.134 6.985-1.213.6.312.907.656 1.782 1.096 1.548.776 3.104 2.493 4.448 3.84 1.28 1.295 2.624 2.73 3.368 4.522zm-1.77-.256c-.14-.69-1.096-1.178-.85-1.79-1.443-1.108-2.08-2.478-3.51-3.567-.91-.703-2.1-1.188-3.203-1.862-.293-.17-.28-.508-.604-.635-1.76-.695-3.572-.612-4.74.138-1.12.722-1.03 1.317-1.306 2.312.522 1.4.966 2.926 1.87 4.302 2.27 1.795 4.792 4.002 7.807 4.612 1.35.27 2.087.27 2.996-.54-2.34-3.014-5.473-5.35-8.888-6.707-.162-.25-.438-.41-.287-.883.563-.524 1.725-.202 2.35.068 2.97 1.305 5.794 4.358 8.114 6.323.196-1.066-.195-1.327.254-1.772zM560.676 54.972c-.103 1.102.546 2.338.11 4.044-.557 2.136-1.37 3.55-2.678 5.03-.842.453-1.665.916-2.435 1.446-.428-.32-1.145.4-1.753.582-.295.09-.65-.14-.974-.007-1.362.58-3.557.555-5.25.77-1.64-.75-3.868-.172-4.898-1.686-1.054-4.516 2.133-8.088 5.474-9.9.042-.16.005-.243-.102-.295.102.02 1.086-.315.92-.56.058-.12.383-.074.403.06 1.44-.978 2.94-.874 4.54-1.563 2.477-.504 4.34.145 6.643 2.08zm-7.308-.373c-1.447.305-2.802.59-4.09 1.35-1.07.636-2.232 2.063-3.308 2.717-1.205 2.422-1.997 3.002-1.806 5.71 3.09 1.59 6.382 1.115 9.816.312.35-.362.226-.763.838-.98.58.285.976.003 1.536-.06.118-1.032.467-1.27 1.384-.91 1.135-1.85 1.78-3.125 1.805-5.72-2.94 1.24-6.248 4.31-9.307 3.792.027-.178-.218-.16-.235-.31.418-.06.19-.183.22-.53 2.8-1.002 6.22-2.547 8.548-4.312-1.16-2.15-3.43-1.48-5.4-1.06zM525.436 48.872c.15.043.053.143-.02.13 2.708-1.483 6.284 1.754 7.198 4.94.26 3.15 1.14 5.73-1.023 8.05.37.585-.593.517-.297 1.068-.62-.09-.752.763-1.053 1.514-1.17.604-1.864 1.84-2.886 2.637-.176-.246-.585-.24-.585.194-.677-.2-.56-.097-.992.133-6.047-.55-5.562-8.515-3.507-12.182-.224-.117.106-.638-.165-.722 1.332-1.614 1.25-4.42 3.33-5.76zm6.37 9.678c-.177-.103-.297-.26-.346-.474.508-2.094-.823-4.638-1.457-6.183-1.45-1.155-2.874-2.39-4.552-1.22-1.782 4.13-3.978 9.167-2.542 13.665.6.49 1.188.983 1.883 1.388-.01-.69.04-.814.452-1.18.073-1.204.615-2.748.845-3.91.242-1.2.203-2.593.375-3.558.175-.957 1.134-4.4 2.326-2.58-.94 3.273-1.392 8.745-2.673 11.698 1.05-.465 1.48-.764 2.06-1.784-.61-.73.425-1.145 1.13-1.083-.155-.045-.11-.24-.073-.427 1.055.285 2.256-3.275 2.575-4.353zM574.83 50.79c.046-.154.147-.055.136.016 1.452-.517 3.023-.962 4.667-.566 2.12.498 3.498 2.34 5.144 3.797 1.805 3.577 4.606 6.564 3.765 10.42-.36.17-.542.572-.932.695-.06-.2-.527-.094-.513-.35-.836 1.14-1.946 1.133-3.18.923-.162.004-.106.128-.024.14-1.005.11-4.01.293-4.766-.69-4.11-1.496-7.107-5.212-6.725-9.185-.103-1 .217-2.274.766-3.356.435-.85 1.397-1.372 1.662-1.844zm12.316 10.82c-2.278-4.39-5.23-11.81-11.835-9.364-3.176 3.522-.728 9.412 3.862 11.68 2.534 1.254 4.637.388 6.494.25-2.412-.75-5.41-4.41-6.988-6.427-.492-.652-1.75-1.764-.496-2.307.33.234.477-.08.833-.015 2.046 3.065 4.746 6.586 8.32 7.738-.217-.64-.193-.86-.19-1.557z"/><g fill="#664E35"><path d="M260.87 83.758c1.147-.804 1.57-2.03 2.076-3.052 1.036-2.046 2.377-3.96 2.85-6.342.384-1.85 1.195-3.674 1.41-5.558.267-2.35.054-4.755.08-7.136 0-1.604-.48-3.18-1.31-4.36-1.258-1.793-2.256-3.766-3.38-5.597-1.432-2.356-3.22-4.198-5.09-6.09-1.207-1.22-3.17-1.4-4.03-3.044-.085-.148-.423-.328-.537-.27-1.13.5-1.956-.174-2.816-.69-1.144-.702-2.502-.662-3.706-1.08-1.58-.543-3.226-1.51-4.772-1.09-1.65.44-3.45.146-4.987 1.136-.955.6-2.444.197-3.01 1.6-1.805-.55-2.19 1.17-3.107 2.015-.77.712-1.558 1.368-2.628 1.865 0-1.374-.04-2.61.018-3.845.006-.564-.157-.983-.696-1.096-1.66-.348-3.396-.44-5.056-.62-1.32-.148-3.405.414-3.95 2.5-.1.402-.467.927-.838 1.048-.664.22-.636.828-.932 1.17-.892 1.04.073 1.826.073 2.707.007 8.455.122 16.883.237 25.33.1 6.438.64 12.887.14 19.354-.302 3.82.32 7.7.155 11.53-.146 3.697-.034 7.43-.21 11.145-.067 1.154.472 2.267 1.39 2.348 2.414.207 4.813.646 7.25.41.41-.05.95-.213 1.056-.607.402-1.62 1.548-2.854 1.94-4.55.826-3.516 1.66-6.987 1.374-10.63-.04-.425.06-.916-.137-1.27-.83-1.43-.83-2.807 0-4.22.26-.458.317-1.098.087-1.4-1.038-1.295.197-2.85-.555-4.183-.262-.456.098-1.03.784-.656 3.545 1.94 7.44 2.776 11.358 3.41.36.047.818.49 1.418.235 2.146-.932 4.607-.54 6.783-1.48.492-.198 1.27-.436 1.516-.402 1.3.132 1.85-1.11 2.958-1.283 2.01-.278 3.096-2.014 4.38-3.33 1.078-1.097 1.137-3.022 2.413-3.922zm-37.194 27.618c-.13.67.016 1.563-.91 1.785-.733.173-.727-.416-.7-.907-.148-.9.456-1.375 1.11-1.63.558-.193.558.426.5.753zm20.886-22.47c-.142.352-.312.842-.67.21-.29-.448-.656-.342-.982-.317-2.278.205-2.225.07-5.206-.87-.99-.327-2.08-.425-3.004-.982-.223-.138-.753-.138-.483-.613.115-.23.584-.253.697-.05.532.942 1.562.713 2.266.786 2.398.256 4.52 1.778 7.022 1.393.303-.048.524.058.36.443zm12.904-19.656c.156 3.117-1.188 5.9-2.66 8.502-.776 1.374-2.417 2.233-3.37 3.552-1.114 1.554-2.874.81-4.23 1.545-1.82.974-3.913-.28-5.894.073-.165.024-.41.024-.458-.065-1.366-2.152-3.88-1.17-5.77-2.08-2.126-1.014-3.354-2.42-4.246-4.41-.927-2.06-1.303-4.207-1.35-6.49-.06-1.716.177-4.854.947-6.71.083-.18.1-.425.083-.63-.247-1.97.787-3.552 1.653-5.132 1.098-2.028 2.307-4.058 4.143-5.505 1.352-1.064 2.896-1.983 4.435-2.676.993-.44 2.423.474 3.674.73 1.793.374 3.302 1.602 4.945 2.444 2.206 1.137 4.624 2.375 5.89 4.577 1.177 2.07 2.31 4.302 2.262 6.848-.027 1.04-.11 2.087.693 2.848-.108.974-.805 1.58-.747 2.58zM203.04 41.106c-1 .48-1.827.292-2.596.073-1.337-.397-2.596.007-3.764.254-2.003.4-2.318 1.92-1.475 3.927.346.81.68 1.826.49 2.635-1.496.042-1.422-1.308-2.054-2.045-1.12-1.318-2.675-2.127-4.123-2.922-1.073-.588-2.24-1.407-3.312-1.57-1.688-.237-3.006-1.805-4.84-1.183-.047.016-.228-.106-.236-.18-.067-1.096-.894-.728-1.447-.737-2.48-.015-4.896.098-7.336.877-2.6.828-4.924 1.936-6.913 3.775-1.383 1.276-2.913 2.29-4.05 3.928-1.072 1.523-2.342 2.896-3.29 4.59-1.49 2.71-2.547 5.468-2.718 8.56-.04.615-.337 1.148-.682 1.694-1.584 2.586-1.584 5.402-.84 8.202.548 2.068 1.16 4.213 2.258 6.005 1.022 1.643-.105 4.098 2.095 5.187.106.048.106.402.09.604-.117 1.257.565 2.22 1.3 3.036 1.99 2.228 4.46 3.956 6.54 6.14.67.687 1.743 1.476 2.814 1.654 2.54.464 5.116.63 7.663 1.063 1.126.19 1.838-.79 2.962-.735 1.594.073 3.348.147 4.776-.42 1.812-.71 3.676-1.184 5.462-2.01 1.88-.87 3.594-1.736 5.252-3.282 0 1.047-.023 2.112.018 3.167.04 1.506 1.447 2.904 2.733 2.546 1.4-.384 2.797-.38 4.17-.23 1.91.195 3.196-.303 3.595-2.284.123-.59 1.254-.73.728-1.53-.923-1.417-.58-2.978-.605-4.49-.024-2.392.886-4.65.778-7.08-.16-3.832-.03-7.668-.03-11.49-.018-1.295-.018-2.563-.296-3.848-.237-1.13.5-2.2.06-3.51-.41-1.285.137-2.803.44-4.254.745-3.578.522-7.3.4-10.967-.07-2.374-2.208-4.04-4.015-3.15zm-40.943 19.576c-.494.883-.15 2.21-.238 3.33-.037.45.4 1.34-.445 1.276-.89-.055-.137-.925-.277-1.228-.974-2.202 1.186-3.782 1.006-5.81.327.85.464 1.513-.047 2.432zM194.903 73.8c-.703.513-.763 1.596-1.538 2.15-1.023.737-2.21 1.238-2.914 2.407-.27.484-.966.318-1.505.36-.346.018-.866-.21-1 .262-.27 1.03-1.046 1.086-1.845 1.086-1.698-.015-2.997 1.54-4.544 1.5-4.183-.115-7.98-1.587-9.674-5.64-.85-2.01-2.415-3.903-2.21-6.308.008-.164.008-.386-.07-.474-1.935-1.958-1.245-4.503-1.51-6.792-.892-3.692 1.958-5.713 3.676-8.168.465-.663 1.8-.165 2.74-.785 1.05-.696 2.653.318 3.79-.705 2.03 1.382 4.732.016 6.852 1.996 1.29 1.19 3.507 1.524 5.23 2.488 1.207.67 1.807 1.476 2.118 2.752.26 1.105.91 2.11 1.325 3.173.442 1.14.86 2.283 1.236 3.437.473 1.48.655 3.02.792 4.566.093 1.113.033 1.973-.95 2.693zM355.193 86.18c-.77-.362-.53-1.045-.466-1.554.22-1.768-.5-3.518-.04-5.278.056-.187 0-.54-.107-.59-.794-.4-.51-1.128-.522-1.71-.024-2.57-.018-5.116-.018-7.677 0-2.92 0-5.85.018-8.78 0-.425-.123-.99.09-1.27 1.277-1.538.26-3.45.923-5.18.37-.99.084-2.52-.104-4.04.72-2.193-.73-4.427-.615-6.818.107-1.98-.79-2.777-2.82-2.777-.77 0-1.53.1-2.278-.016-1.25-.214-2.526-.32-3.41.73-.728.868-2.02 1.146-2.25 2.626-.206 1.31-.99 1.375-1.877.27-1.307-1.603-3.13-2.618-4.73-3.816-2.095-1.612-5.013-.426-7.518-1.317-1.05-.368-2.62-.597-3.748.506-.158.138-.517.026-.632-.312-.157-.39-.688-.4-.812-.26-.825.99-2.037.457-2.882.506-3.107.157-6.055.846-8.983 1.748-2.113.638-3.27 2.463-4.507 4.003-1.442 1.775-1.917 4.115-3.152 6.113-1.676 2.683-3.1 5.688-2.756 9.108.03.254.04.604-.092.784-1.978 2.678-2.837 5.45-1.594 8.805.803 2.21 1.007 4.656 2.382 6.638 1.554 2.226 2.716 4.747 4.752 6.612 2.22 2.023 4.747 3.592 7.196 5.287 2.233 1.538 4.713 1.767 7.003 2.58 1.88.668 4.144.98 6.31.505 1.18-.254 2.31.557 3.65.066 1.254-.44 2.765-.035 4.052-.9 1.022-.67 2.343-.492 3.52-1.017 1.434-.654 2.69-1.464 3.91-2.44.303-.235.436-.824.985-.54.4.214.212.666.228 1.017.123 1.744 1.22 2.732 2.922 2.847 1.352.083 2.414-.77 3.787-.77 1.91-.007 3.372-1.177 4.24-2.97.114-.278.195-.613-.05-.72zm-48.11-22.333c-.927-1.726.64-2.757 1.063-4.354.707 2.267.41 3.348-1.064 4.354zm8.51-18.445c.232.074.402.14.345.41-.11.246-.18.67-.345.704-.955.19-1.89.36-2.643 1.12-.14.14-.53-.016-.492-.383.058-.548 2.61-2.023 3.135-1.85zm1.188 37.922c-.223-.156-.223-.516.017-.695.14-.126.532-.166.574-.09.58.956 1.996.835 2.527 2.068-1.498.517-2.188-.654-3.116-1.284zm25.835-18.436c-.335 2.297-.704 4.713-1.67 6.784-1.577 3.363-4.458 5.663-7.667 7.472-.636.36-1.54.31-2.322.4-.91.107-1.915-.295-2.646.623-.105.105-.476.115-.623.014-1.89-1.136-4.13-.13-6.047-.947-2.053-.876-3.82-2.054-5.048-4.034-.523-.828-1-1.713-1.53-2.547-1.57-2.388-1.955-5.09-1.67-7.906 0-.432.04-.875-.016-1.292-.4-3.91 1.528-6.99 4.403-8.938 2.157-1.48 4.41-3.255 7.657-3.102 3.094.148 6.236.434 9.32.64 2.61.172 5.147 1.798 6.803 4.008.622.828 1.132 2.063 1.11 3.298-.02 1.843.208 3.72-.055 5.528zM457.814 86.73c-1.504-1.295-2.986-2.752-4.598-3.807-2.424-1.595-4.46-3.42-6.172-5.72-1.073-1.432-2.357-2.725-3.446-4.15-.536-.703-1.527-.734-1.97-1.285-1.21-1.496-2.618-2.52-4.476-2.978-.78-.196-.647-.94-.224-1.195.648-.384.82-.948 1.198-1.457.562-.786.833-1.95 2.06-2.24.558-.123 1.132-.738 1.202-1.32.148-1.228 1.29-1.972 1.934-2.284 1.27-.622 1.758-1.685 2.593-2.584 1.4-1.483 2.628-3.092 4.282-4.377 1.954-1.54 3.485-3.62 5.35-5.257.63-.532.852-1.35 1.596-1.725.296-.156.24-.26-1.012-1.873-.122-.148-.245-.383-.23-.565.075-.842-.482-.753-1.05-.81-1.146-.115-2.52.015-3.402-.566-1.013-.67-1.217-2.246-3.24-1.57-1.186.4-1.383 0-2.168 1.333-.474.86-1.424 1.466-2.236 2.095-.73.573-1.67.91-2.305 1.554-1.198 1.162-2.516 2.382-3.815 3.142-2.07 1.235-3.658 2.914-4.976 4.632-1.376 1.792-2.866 3.545-4.19 5.402-.79 1.113-2.162 1.603-3.225 2.757 0-2.783.09-5.587-.052-8.363-.037-.63 1.18-.63.436-1.235-.756-.64-.48-1.473-.318-2.088.406-1.652.5-3.322.563-4.976.057-2.257-.157-4.48-.532-6.72-.418-2.578-.293-5.305.532-7.923.417-1.356-.593-2.633-.58-3.936.04-1.963-.55-4 .546-5.93.518-.893-.506-1.883-.528-2.782-.066-1.884-.42-3.726-.468-5.626-.025-1.636.17-3.264.066-4.893-.085-1.228-2.178-2.406-3.24-2.103-2.017.563-3.74 2.012-5.942 2.03-.434.005-.77.206-.85.612-.265 1.374-2.212 2.62-.377 4.198.03.024.008.097.008.153-.368 5.093.794 10.264-.62 15.33-.052.196-.06.546.038.622.95.548.518 1.423.575 2.177.377 5.047-.524 10.09.54 15.183.476 2.243.41 4.713.41 7.064.018 3.672-.264 7.338-.272 11.005-.007 2.75.378 5.508.248 8.233-.074 1.825-.49 3.667-.22 5.457.514 3.298.145 6.59.275 9.88.02.532-.08 1.005-.416 1.58-.632 1.03-.123 2.094.558 3.15.465.75 1.562.98 1.627.94 1.366-.94 2.186.363 3.135.77 1.537.655 3.248.9 4.525.295.84-.393 1.66-1.94 1.318-3.396-.078-.367-.14-.835.022-1.128.99-1.743.784-3.552.714-5.45-.045-1.023-1.214-1.287-1-1.964.54-1.868-.892-3.44-.263-5.516.54-1.782 1.327-3.83.778-6.04 1.88.44 2.905 1.81 4.167 2.75 1.52 1.106 2.816 2.53 4.06 3.96.957 1.123 2.453 1.776 3.175 2.89 1.015 1.53 2.324 2.727 3.56 3.97 1.143 1.18 1.516 2.847 3.126 3.79 1.497.876 2.17 2.905 3.74 3.968.867.573 1.768 1.694 2.717 1.235 1.095-.533 2.242-.498 3.23-.908 1.317-.518 2.858-.76 3.636-2.472.564-1.21 1.34-1.687-.126-2.946zM405.784 77.35c-1.324-.368-3.093-1.34-3.813 1.033-.058.18-.194.4-.352.473-1.44.63-2.525 1.956-4.256 1.988-.384.01-.89.36-1.064.37-1.512.08-2.37 1.463-3.876 1.652-2.21.295-4.552-.286-6.663.877-.22.13-.802.088-.898-.075-.437-.72-1.13-.408-1.713-.563-1.203-.322-2.486-.656-3.225-1.695-.376-.53-.71-1.08-1.172-1.546-1.684-1.694-3.322-3.494-3.73-5.934-.246-1.52-.04-3.117-.04-4.68h-.107c0-.974-.02-1.957.008-2.938.05-2.682.712-5.107 2.97-6.84 1.573-1.197 2.7-2.808 4.32-3.986 1.114-.794 2.478-1.268 3.552-1.44 3.2-.5 6.48-.302 9.658.71.914.296 2.044-.073 2.423 1.24.032.12.524.03.742.153 1.155.67 2.62.515 3.65 1.384 1.246 1.028 2.93.742 3.584-.72.18-.427.6-.404.867-.65.124-.14.5-.31.352-.408-1.512-.834-.336-2.257-.392-3.19-.15-2.647-.73-5.223-.8-7.85-.05-.827-.115-1.572-.976-1.792-.94-.246-1.694-1.662-2.923-.515-.136.128-.54.105-.773 0-2.275-1.073-4.77-1.285-7.178-1.482-2.194-.185-4.447-.387-6.737.41-1.226.432-2.896.244-4.368.466-.754.098-1.89.547-2.097.48-1.26-.52-2.03.223-2.897.805-1.707 1.177-3.776 1.69-5.375 3.198-.58.564-1.013 1.35-1.675 1.703-1.207.638-1.877 1.777-2.632 2.742-1.864 2.396-3.506 5-4.292 7.97-.443 1.703-1.417 3.266-1.63 4.934-.566 4.64-.812 9.3.573 13.887.228.805.893 1.36.998 2.22.366 2.707 2.6 4.28 4.188 6.113.784.923 2.046 1.767 3.062 2.676.288.27.58.588.94.736.834.353 4.1 2.34 4.83 3.053.17.174.385.327.505.075.4-.777.564-.074.95.033 1.785.48 3.247 1.65 5.17 1.897 2.507.344 4.993.14 7.474.107 1.26-.016 2.69.507 3.822-.262 1.003-.696 2.053-.705 3.125-.606 1.178.115 2.274-.523 2.756-1.146 1.295-1.678 3.383-1.907 4.792-3.173.758-.714 2.25-.722 2.27-2.138.052-2.175.166-4.346-.047-6.497-.112-1.256-.414-2.85-1.88-3.26zM125.17 43.06c-1.874-1.282-4.066-1.807-6.12-1.595-1.54.156-3.282-.522-4.74.728-.375.32-1.596.182-1.16-.776.474-1.027.195-1.79-.035-2.697-.105-.393-.21-.917.26-1.333.74-.63.584-1.8.25-2.21-.772-.94-.272-1.956-.575-2.863-.596-1.792.786-3.322.236-5.33-.54-1.97.476-4.36.828-6.57.05-.303.222-.77.436-.826 1.333-.36 2.094-2.85 4-1.116.1.077.354.06.467-.014 1.26-.792 2.192.17 3.127.654.98.506 3.125-.008 3.238-1.096.15-1.343.15-2.718-.038-4.052-.068-.448-.468-.645-.01-1.26.582-.77-.334-3.567-1.016-3.567-3.108.032-6.12-1.197-9.296-.418-1.646.4-3.304.49-4.925 1.26-1.717.81-2.824 2.088-3.986 3.37-1.104 1.22-1.308 2.996-1.996 4.322-1.168 2.216-1.53 4.646-1.578 6.758-.106 4.747-.973 9.42-.82 14.16.008.342-.188.784.22 1.02.51.295.615.696.14.993-.472.284-.31 1.312-1.31 1.033-2.103-.597-4.222.148-6.34.033-1.842-.114-3.28 1.76-3.52 3.584-.164 1.366.844 2.364.697 3.624-.124 1.31.652 2.056 1.628 2.643.983.575 1.784-.162 2.47-.652.355-.253.616-.542 1.057-.467 1.343.264 2.667-.04 4.01-.015.688 0 .966.194.95.922-.058 1.327.105 2.63.05 3.977-.173 3.58-.058 7.17-.058 10.754 0 1.794.007 3.577 0 5.36-.027 1.23.63 2.432.014 3.676-.12.244-.13.77.025.94.99.99.638 2.21.556 3.307-.107 1.826.532 3.625.074 5.45-.09.337-.22.86.344 1.112.443.2.392.836.245 1-1.17 1.202-.304 2.06.32 3.093.466.754.9 1.987 1.358 2.233 1.193.664 2.578 1.507 4.085 1.065.547-.164 1.02-.533 1.66-.64 2.096-.327 4.15-3.372 3.25-5.254-.893-1.858-.59-3.74-.793-5.564-.518-4.688.162-9.43-.036-14.16-.113-2.847.174-5.72.27-8.574.01-.427-.08-.918.098-1.27.91-1.8.845-3.535.018-5.344-.32-.73-.345-1.448.916-1.448 1.833-.032 3.617.67 5.163.352h2.087c1.924-.017 2.685-.45 2.748-2.357.076-1.833.722-3.307 1.598-4.81.25-.424-.052-.79-.543-1.144zM143.902 8.793c-1.163.097-2.292.14-3.443-.01-2.153-.292-3.53 1.376-5.23 2.18-1.107.514-1.927 1.12-1.68 2.553.105.646.09 1.316.655 1.726.606.417.48 1.227.254 1.39-.87.632-.516 1.467-.55 2.21-.255 8.553.345 17.08.326 25.62-.004 2.936-.343 5.85-.08 8.814.188 2.103-.312 4.278-.27 6.43.058 2.602.024 5.205.007 7.806 0 .46.22 1.01-.215 1.368-1.257 1.07.406 2.12.037 3.356-.18.64.434 2.064.09 2.84-1.04 2.29-.362 4.55-.402 6.832 0 .745.852 1.432.435 1.917-.837.965-.458 1.993-.588 2.862 0 .68-.017 1.23.015 1.76.096 2.078 1.936 3.903 3.583 3.182 1.515-.687 2.97-.433 4.458-.57 1.72-.157 2.31-.83 2.366-2.475.1-3.068-.01-6.128.253-9.206.566-6.827-.44-13.682.584-20.542.44-2.938.654-6.105-.418-9.174-.36-1.03-.346-2.456.35-3.805.4-.76-.22-2.136.06-3.43.425-1.943.416-4.086.41-6.117-.035-3.716.235-7.416-.477-11.187-.59-3.11-.196-6.416.483-9.616.27-1.26.205-2.537.915-3.722.747-1.276-.465-3.126-1.93-2.995zm-4.818 70.327c-.066.72-.313 1.414-.476 2.133-.614-1.742-.41-3.486-.458-5.212-.006-.26.016-.605.39-.522.323.066.55.33.55.695.008.975.075 1.947-.006 2.907zM286.253 41.58c-.947.05-1.913-.023-2.675-.245-1.07-.32-1.52.058-2.21.664-.415.384-.604 1.415-1.74.834-.548-.29-2.325 2.568-1.833 2.92.827.623.557 1.383.53 2.047-.37 5.82 1.377 12.595.114 18.396-.424 1.972-.678 18.15-.678 20.214 0 2.005.007 4.018 0 6.015-.008 1.873.343 3.738-.008 5.605-.148.785.24 5.05-.517 7.136-1.122 2.07-1.086 1.998-2.595 2.405-1.938-.335-2.216-.628-3.47-1.487-.548-.378-1.203-1.72-1.817-3.176-.686-1.628-1.3-3.43-1.6-4.214-.328-.86-1.892-.616-5.205 1.08-1.212.622-2.777.36-4.093 1.594 0 1.867.4 3.15.982 4.634.735 1.858 1.537 3.348 2.094 4.55.59.9 3.008 3.464 4.37 4.65 2.2 1.93 2.766 3.15 6.55 3.15 2.38 0 4.914-.05 6.134-.33 1.725-.406 2.038.46 5.197-1.988 1.767-1.766 3.485-2.2 4.447-3.9 1.238-2.178 1.52-5.96 1.83-7.98.624-3.993.427-19.296 0-22.34-.63-4.485.138-9.912 1.054-14.567.633-3.265-1.117-9.263-.73-12.677.095-.694.806-2.06 1.166-2.48 1.178-1.357-1.465-2.068-.466-3.527.708-1.015-.01-2.676 1.006-3.81.153-.174.064-.492-.17-.72-1.41-1.346-3.857-2.54-5.67-2.45zM278.728 27.14c.698 1.35 2.046 1.784 3.176 2.25 1.014.427 2.716.492 3.476-.088 1.154-.86 2.17-2.276 2.686-3.527.638-1.538 1.637-3.225 1.072-5.082.67-2.473-1.39-3.905-2.187-5.81-.196-.485-.27-.164-.54-.147-1.013.082-1.996.375-3.053-.37-.712-.507-2.117-.507-2.822-.01-1.588 1.114-3.232 2.187-4.384 3.857-1.72 2.512-1.58 4.41.678 6.718.672.698 1.448 1.376 1.9 2.21z"/><path fill-rule="evenodd" clip-rule="evenodd" d="M500.596 43.82c-.137 3.293 2.05 4.26 1.354 8.134-1.428-.08-2.727-.025-2.37 1.688-2.124-.843-3.044-.313-6.098 0-1.22-1.945-3.818-2.506-4.75-4.743-5.715-1.494-9.92 1.244-10.156 7.11 3.67 4.224 9.53 6.29 16.598 7.113 2.322 1.293 3.97 3.263 6.776 4.07.64 2.282 1.415 4.448 3.386 5.413-1.377.73.068 2.137 0 3.056-.24 3.378-3.29 7.152-1.693 10.164-.42.6-1.964.07-1.356 1.692-3.602 1.142-5.222 4.266-8.47 5.75-2.744.248-4.125-.254-5.754 1.024-6.755.43-11.166-1.49-16.272-2.713.056-.605-.41-.715-.32-1.345-4.14-1.29-5.94-4.92-8.142-8.13.196-3.2 4.035-2.75 4.07-6.103 2.607-.67 4.314-1.89 5.757 1.02.217.446 1.117 1.458 1.692 2.027 2.165 2.157 6.612 5.958 10.164 4.404v.678c3.853-1.458 7.993-2.918 6.777-7.79-.812-3.25-5.884-4.9-9.825-5.422-.28-.4-.45-.91-.332-1.694-4.673.37-6.476-2.113-10.162-2.71-1.747-2.44-4.065-4.3-5.765-6.78-.486-3.347-.94-6.744-.684-10.835 1.55.08 1.48-1.46 1.7-2.714 3.075-1.1 4.838-3.514 6.768-5.757 5.37-1.22 12.418-4.506 17.623-1.016 4.96-.333 6.217 3.033 9.486 4.406zm-9.486 25.064c.813-.143.736.614 1.687.34.237-1.145-.69-1.112-1.01-1.696.416 1.094-1.1.254-.677 1.356zM470.79 84.13c4.392 1.738-.466-2.122-.354-1.36.508.063.32.817.354 1.36zm14.892 5.75c.552.064.69-2.21-.334-1.687-.263.237-.885 2.02.334 1.688z"/></g><g><path fill="#FAF4E0" d="M69.518 66.73c3.237-5.064 3.447-12.132-.578-16.89-3.56-4.206-8.302 1.412-9.044 4.865-.816 3.795.672 11.488 5.527 12.055 4.674.546 6.246-3.125 5.832-7.262-.303-3.034-1.253-9.358-5.292-9.3-3.967.057-4.384 7.39-4.15 9.984.237 2.6 2.125 7.42 5.207 4.105 2.32-2.495 1.678-8.32-.49-10.628-.613-.65-1.666-.592-2.346-.056-3.14 2.473-2.426 8.325-.278 11.243.668.907 2.344.443 2.773-.47 1.673-3.565.982-8.214-.86-11.585-.62-1.136-2.647-.247-2.853.765-.558 2.748-.87 8.037 2.447 9.19 1.33.463 3.477-1.446 1.688-2.068-2.135-.744-1.472-5.636-1.13-7.32l-2.853.765c1.546 2.83 2.112 6.885.715 9.86.924-.156 1.85-.312 2.773-.47-1.352-1.834-2.575-6.784-.437-8.47l-2.344-.054c1.502 1.598 1.624 3.797 1.42 5.88-.08.824-.257 1.77-.724 2.47 1.25.244 1.615.08 1.092-.495-.407-.615-.536-1.58-.7-2.28-.52-2.22-.017-5.006.747-7.11.556-1.527.25-.812.956.392.598 1.02.91 2.235 1.19 3.377.51 2.08.863 4.51.142 6.577-.838 2.405-3.428-.93-3.98-1.834-.717-1.17-.99-2.53-1.172-3.867-.215-1.585-.052-3.277.415-4.8.203-.604.508-1.153.917-1.647 1.812-2.42 3.442 1.48 3.78 2.197 1.77 3.745 1.314 8.49-.886 11.93-1.024 1.605 1.726 2.156 2.498.95zM43.82 64.384c.48.995 1.61.83 2.517.48 1.123-.432 1.486-1.353 1.756-2.452.482-1.963.862-5.484-1.923-5.53-4.168-.067-4.965 4.267-3.222 7.242 1.8 3.07 6.588 1.242 6.68-2.035.09-3.137-1.95-6.792-5.56-5.476-2.496.91-1.973 3.77-1.2 5.777.99 2.576 3.14 3.43 5.62 2.133 4.17-2.185 1.142-6.7-1.95-8.084-2.208-.99-5.218-.045-6.292 2.107-1.23 2.46.564 6.542 3.233 7.13.674.148 2.417-.014 2.667-.862.97-3.292-.506-9.965-4.924-9.795-3.798.146-4.58 3.778-3.708 6.89.765 2.73 4.054 3.467 5.984 1.387 1.743-1.88.936-6.194-.224-8.125-1.43-2.38-5.16-1.306-6.472.66-1.47 2.202-.445 6.226 1.33 7.992.78.775 2.246.454 3.098.004 1.39-.733 1.384-2.392 1.442-3.78.058-1.397-.037-4.2-1.78-4.727-1.385-.417-2.827.04-3.995.817-2.37 1.58-1.74 4.783-.387 6.75.466.678 2.348-.184 2.74-.587 1.984-2.032 2.216-8.485-1.667-8.337-4.203.16-4.34 5.56-1.97 8.09.578.614 2.29-.118 2.742-.59 1.34-1.39 1.37-4.096.413-5.703-.96-1.616-3.5-.33-4.463.59-.515.49.442.656.742.642 1.12-.053 2.18-.29 3.187-.812 1.974-1.02 3.105-.735 4.612.787 1.91 1.932 3.445 5.58 2.282 8.218-.3.68 2.568.375 2.936-.46 1.396-3.168-.638-7-2.866-9.25-.853-.862-2.3-1.71-3.562-1.627-.85.056-1.693.136-2.495.455-.834.332-1.998 1.256-2.87 1.298.25.215.496.43.743.644-1.314 1.255-1.5-.528-.875.977.174.42.213.9.265 1.346.118 1.01-.03 2.245-.76 3.004l2.74-.588c-.722-.77-.96-1.92-1.156-2.924-.095-.487-.113-.98-.125-1.475 0-.38.054-.75.165-1.11.42-.663.21-.664-.63-.003 1.756.922 1.03 5.78-.1 6.937l2.742-.588c-.74-1.076-1.153-2.22-1.01-3.532.043-.406.207-.787.368-1.156.143-.284.332-.53.566-.742-.704.052-.835.2-.396.446.847.705.854 2.337.905 3.31.037.718-.03 1.446-.13 2.156-.04.25-.1.495-.18.734-.406.766.152.718 1.673-.146-1.23-.682-1.664-2.936-1.867-4.17-.16-.972-.093-1.942.257-2.86.313-.824.718-.39.102-.596.39.13.72.66.91.978.833 1.386.98 3.233.933 4.808-.022.767-.174 1.71-.626 2.353.727-1.036 1.62.116.527-.763-.45-.364-.655-.996-.842-1.52-.33-.927-.39-1.987-.314-2.958.033-.417.146-.817.268-1.214.09-.276.227-.526.413-.75-.91.18-.904.395.022.646 2.364 1.4 3.05 6.05 2.35 8.432l2.67-.862c-2.546-.56-3.408-4.15-2.7-6.325.284-.87.177-.64.958-.386.656.213 1.21.674 1.73 1.104 1.13.926 1.974 2.396 1.67 3.876-.095.46-.5.878-.81 1.214.53-.575 1 .114.296-.446-.58-.46-.914-1.19-1.2-1.853-.522-1.218-.916-2.875-.416-4.153.293-.75-2.01.053-1.107.362.388.132.74.452 1.056.7.936.738 1.162 2.197 1.3 3.3.078.637-.003 1.268-.146 1.888-.33.453-.18.636.453.55-.342-.155-.63-.378-.863-.668-.89-.912-1.132-2.495-1.17-3.704-.02-.617.16-1.266.66-1.663-.836.666-.97-.375-.514.406.34.582.336 1.39.346 2.04.012.848-.138 1.698-.34 2.517-.065.268-.16.526-.258.783-.466 1.212 2.362.478 1.954-.366-.415-.857-3.277.138-2.962.79zM15.19 61.247c.14.37.376.66.712.867.81.69 2.192.34 2.762-.51 1.536-2.292 4.058-10.055-1.084-9.443-4.3.512-4.31 7.234-2.624 10.087.5.845 2.08.19 2.58-.265C20.37 59.4 21.36 50.338 15.432 51.83c-4.326 1.088-2.592 9.592-.985 12.236.56.922 2.34.144 2.762-.51 1.845-2.857 2.632-11.623-2.653-10.953-5.456.69-3.78 9.494-2.69 12.953.352 1.123 2.944.556 2.97-.54.09-3.863.738-7.852-.498-11.6-.312-.944-1.854-.595-2.436-.183-3.77 2.668-1.895 7.956-2.212 11.802l2.97-.54c-.444-2.334-.364-4.71-.64-7.064-.136-1.166-2.572-.46-2.88.285-.884 2.148-.636 4.582-1.74 6.63l2.88-.283c-.718-3.248 1.198-6.758 3.235-9.157.634-.747 2.04-2.392 3.178-2.098 1.608.415 1.82 3.557 1.95 4.795.127 1.208 3.097.51 2.96-.793-.216-2.072-.68-4.85-2.888-5.73-1.88-.75-3.913.07-5.483 1.14-3.667 2.5-6.908 8.123-5.91 12.636.264 1.198 2.49.436 2.878-.284 1.13-2.095.85-4.468 1.74-6.63l-2.878.283c.275 2.356.195 4.73.64 7.065.227 1.187 2.886.502 2.972-.54.23-2.77-1.518-8.478 1.14-10.36l-2.434-.18c1.185 3.592.562 7.39.475 11.093l2.97-.54c-.897-2.854-1.68-6.926-.497-9.777.58-1.393 1.166 2.86 1.16 3.385-.013 1.59-.193 3.596-1.076 4.962l2.762-.51c-1.293-2.126-1.515-5.77-1.214-8.152.037-.247.09-.49.16-.73.152-.583-.037-.25.278.13.506.61.422 1.76.384 2.473-.08 1.507-.514 3.665-1.68 4.726.86-.09 1.72-.177 2.58-.266-.517-.876-.582-2.086-.663-3.073-.06-.72.006-1.452.097-2.168.044-.298.108-.592.192-.882.247-.976.666-.497-.032-.803 1.684.738-.775 6.355-1.41 7.303l2.762-.51c-.336-.206-.573-.494-.71-.866-.593-1.023-3.446 0-2.73 1.243zM29.236 87.886c.132 2.063.217 4.083.75 6.09.223.834 2.488.096 2.667-.55.968-3.505 1.247-7.127 1.897-10.694.164-.9-2.488-.412-2.66.385-.595 2.78-1.133 5.566-1.593 8.37l2.666-.55c-.773-3.94.24-7.925-.07-11.9-.072-.904-2.42.05-2.667.55-1.804 3.663-1.124 7.77-1.98 11.66l2.667-.55c-1.294-4.113.04-8.444-.127-12.658-.032-.793-2.486-.09-2.666.55-1.074 3.814-1.362 7.754-1.98 11.655l2.665-.55c-.35-4.013.15-7.975.53-11.965.093-.967-2.46-.364-2.658.385-1 3.81-.626 7.76-1.362 11.61.89-.185 1.777-.368 2.666-.55-.383-3.413.475-6.784.375-10.203-.024-.83-2.447-.027-2.666.55-1.252 3.303-1.24 14.22 4.34 13.767 8.817-.716 6.21-11.91 1.564-16.168-1.552-1.423-4.583-1.27-5.89.463-2.134 2.828-1.713 6.894-.438 9.98.826 1.997 2.727 5.803 5.227 6.09 3.07.35 4.176-1.94 4.505-4.623.114-.933-2.56-.413-2.66.385-.123 1.015-.237 2.046-.755 2.952.666-.012.645-.146-.062-.404-.416-.28-.76-.68-1.095-1.044-1.35-1.464-2.25-3.376-2.936-5.225-.812-2.19-.702-4.565-.063-6.788.992-3.452 4.085 2.414 4.606 3.502 1.038 2.167 1.56 4.706 1.07 7.073-.745 3.613-3.33 2.143-4.32-.11-1.295-2.946-1.578-7.22-.434-10.238l-2.667.55c.1 3.426-.76 6.78-.374 10.202.088.788 2.536.123 2.665-.55.736-3.852.36-7.8 1.362-11.61l-2.66.385c-.392 4.104-.903 8.172-.544 12.296.067.77 2.556.142 2.666-.55.618-3.9.906-7.84 1.98-11.655l-2.666.55c.167 4.207-1.168 8.54.127 12.658.255.808 2.517.13 2.667-.55.856-3.89.176-7.997 1.98-11.66-.89.185-1.778.368-2.667.55.312 3.98-.703 7.952.07 11.9.158.8 2.556.13 2.667-.55.46-2.804.998-5.59 1.594-8.37l-2.658.385c-.65 3.567-.93 7.19-1.897 10.693l2.666-.55c-.533-2.006-.618-4.025-.75-6.088-.048-.733-2.733-.208-2.674.714z"/><path fill-rule="evenodd" clip-rule="evenodd" fill="#C5B081" d="M30.986 75.584c.168.53.626.674 1.094.814 3.116 3.492 6.48 13.604 1.214 17.882.018.188.1.292.193.39-.934.813-1.887-.24-2.9.147-4.374-2.563-5.942-6.69-6.39-11.44.59-2.308.906-4.082 1.58-6.345.9-1.095 2.216-1.747 3.495-1.76.548.146 1.083.29 1.714.312zm.22 17.75c.205-.99-.94-4.138-1.454-5.205-.15-1.153-.443-3.624-.736-5.036-.163-.832-.148-1.877 1.073-1.267.793.395.482 2.58.603 3.248.46 2.42 1.583 5.15 2.088 7.608.61-.388.603-1.245 1.304-1.568.546-2.147.31-4.046.33-5.33-1.137-3.68-1.24-9.048-6.032-8.99-3.562 3.673-3.636 12.623 1.558 15.478.017.385.85 1.206 1.266 1.062z"/><path fill="#FAF4E0" d="M54.195 77.977c2.15 2.056 6.67 1.438 8.37-1.012 1.656-2.387-.812-4.975-3.327-4.833-4.03.228-4.543 8.31-.358 6.958 2.8-.904 4.197-4.82 3.208-7.422-1.375-3.62-6.202-.457-7.087 1.836-.387 1.006-.68 3.042.096 3.96.885 1.05 2.67.532 3.6-.198 1.963-1.545 2.715-5.68.28-7.17-1.97-1.208-4.446.826-5.205 2.494-.86 1.893-.942 5.264.453 6.933.536.64 2.088.15 2.562-.334 2.114-2.167 3.85-8.97-.223-9.972-1.98-.488-3.728 1.087-4.567 2.686-.73 1.393-1.81 4.498-.61 5.94 2.81 3.375 7.974-3.4 5.872-6.285-1.263-1.733-3.143-1.813-4.82-.556-1.46 1.096-1.817 4.065-1.215 5.658.373.988 2.794.32 2.96-.58.593-3.25-2.882-2.493-4.57-1.144l2.667-.15c-.113-.305-.224-.612-.332-.918-.373-1.046-3.308-.186-2.96.793.11.307.22.613.332.918.355.976 2.156.258 2.667-.15-.723-.082-.98.258-.766 1.02l2.96-.58c-.366-.97-.236-1.983-.01-2.97.11-.482.297-1.036.64-1.403-1.22-.008-1.47.21-.75.65.185.185.333.394.446.627.398.91-.05 2.208-.357 3.078-.114.295-.257.575-.43.838-.41.424-.226.48.555.165-.39-.287-.364-1.148-.356-1.553.02-1.09.36-2.18.763-3.18.205-.506.523-1.017.91-1.404-.587.08-.665.237-.234.47.268.256.36.642.462.982.53 1.78-.074 5.157-1.412 6.527.854-.11 1.708-.223 2.562-.334-1.046-1.25-.852-3.45-.595-4.93.073-.416.21-.815.354-1.21.355-.97.752-.408-.107-.69.78.257.85 1.9.848 2.52 0 .73-.15 1.52-.534 2.147-.617 1.01.986.337.804-.227-.125-.388-.11-.85-.093-1.246.04-.953.31-1.917.962-2.627.608-.664.804 2.632.782 2.8-.117.918-.63 1.752-1.14 2.506-.75 1.11 1.08.247.985.072-.417-.78-.32-1.837-.172-2.67.073-.404.202-.797.415-1.15.37-.612.22.552-.896.14.363.133.644.437.91.7 1.89 1.865-.76 4.036-2.553 2.32-.754-.726-3.544.393-2.745 1.16z"/><path fill-rule="evenodd" clip-rule="evenodd" fill="#C5B081" d="M61.123 80.04c-1.504.522-3.157.474-3.982 1.274-2.33.152-4.78-1.75-6.99-3.15-1.417-1.393-2.62-3.244-1.647-5.605 4.268-5.084 11.268-4.343 14.64.376.143-.02.277-.042.414-.062.467.95.443 2.58.845 3.908-.714 1.213-1.51 2.64-3.28 3.257zM49.65 73.79c3.28 1.543 5.614.594 9.712 1.78-.04.435.296.368.25.8-.492.144-1.138.7-2 .562-.446-.068-1.475-.614-2.604-.728-1-.09-2.09.213-3.054.027-.758-.144-1.17-.666-1.87-.42 1.143 1.73 3.048 2.523 4.292 3.68.44-.07.46-.46 1.042-.427.198.28.696.156.67.74.687-.247 4.19-.463 5.478-1.494 1.167-.95 1.303-3.097.767-4.28-.623-1.38-2.312-2.372-3.855-2.638-.263-.564-1.08-.4-1.385-.913-.91.45-1.83-.278-2.92.01-1.728.46-3.373 2.137-4.522 3.3z"/><path fill="#FAF4E0" d="M14.65 81.973c.324-1.318.55-2.646.776-3.984-.98.216-1.96.432-2.94.65.32.854.582 1.704.77 2.598.138.672 3-.015 2.958-.793-.07-1.29-.363-2.372-.908-3.542-.325-.698-2.74.033-2.94.65-.68 2.075-.27 4.157-.63 6.28l2.94-.65c-1.247-1.776-1.222-4.08-1.672-6.135-.158-.725-2.878.062-2.96.793-.29 2.617.31 5.264-.364 7.84.98-.218 1.96-.434 2.94-.65-.81-2.182-.76-4.53-1.376-6.763-.2-.728-2.744.083-2.94.65-.83 2.39.255 4.858-.492 7.23l2.94-.65c-.763-1.93-.85-4.004-1.45-5.98-.21-.69-2.81.04-2.94.65-.524 2.442-.33 4.9-.513 7.374l2.958-.792c-.54-1.794-.642-3.674-1.37-5.412-.302-.724-2.49.073-2.822.494-1.223 1.544-.796 3.368-1.32 5.166l2.94-.65c-.236-.766-.65-1.433-.903-2.19-.257-.766-2.686.118-2.94.65-.357.743-.665 1.44-.832 2.25l2.942-.65-.083-.562c-.096-.64-3.078 0-2.96.793l.083.562c.097.66 2.814-.037 2.94-.65.168-.81.476-1.507.832-2.25-.98.216-1.96.432-2.94.65.253.756.666 1.424.903 2.19.22.71 2.77-.06 2.94-.65.458-1.566.03-3.52 1.085-4.854l-2.823.494c.727 1.738.828 3.618 1.37 5.412.22.732 2.903-.06 2.958-.793.178-2.374-.026-4.744.476-7.088l-2.94.65c.6 1.975.686 4.05 1.45 5.98.28.707 2.75-.05 2.94-.65.753-2.388-.334-4.852.492-7.23-.98.216-1.96.432-2.94.65.614 2.23.566 4.58 1.376 6.76.26.698 2.78-.04 2.94-.65.703-2.677.1-5.403.402-8.123l-2.96.792c.45 2.056.426 4.36 1.674 6.135.408.58 2.82.062 2.94-.65.357-2.1-.04-4.23.63-6.28l-2.94.65c.543 1.17.835 2.25.907 3.542l2.96-.794c-.187-.895-.45-1.744-.77-2.6-.253-.674-2.835.024-2.942.65-.227 1.338-.452 2.667-.775 3.985-.17.694 2.736.254 2.923-.507z"/><path fill-rule="evenodd" clip-rule="evenodd" fill="#C5B081" d="M3.428 80.81c1.344-1.347 2.9-3.064 4.448-3.84.875-.44 1.183-.783 1.783-1.095 1.806-.92 5.24-.644 6.984 1.212 2.668 5.727-4.16 11.137-9.594 12.37-.294.07-.522.496-.756.525-1.082.176-2.27-.31-3.15-.65-1.397-.535-1.925-2.034-3.144-3.44.198-.05.076-.338.06-.56.745-1.792 2.087-3.227 3.368-4.522zm-1.344 6.036c2.32-1.965 5.144-5.018 8.115-6.323.623-.27 1.785-.592 2.347-.068.15.472-.125.632-.287.882-3.415 1.357-6.55 3.694-8.888 6.708.91.807 1.646.807 2.995.54 3.015-.61 5.536-2.818 7.806-4.613.905-1.376 1.35-2.902 1.87-4.302-.274-.995-.184-1.59-1.306-2.31-1.167-.75-2.98-.834-4.74-.14-.323.128-.31.467-.604.636-1.103.674-2.293 1.16-3.204 1.86-1.43 1.09-2.066 2.46-3.51 3.57.246.61-.71 1.098-.85 1.788.45.447.06.708.254 1.772zM39.523 52.892c1.602.69 3.102.585 4.54 1.564.022-.134.347-.18.405-.06-.167.244.817.58.92.56-.107.05-.145.135-.103.295 3.34 1.812 6.527 5.384 5.474 9.9-1.03 1.514-3.26.935-4.9 1.688-1.692-.217-3.887-.19-5.25-.77-.32-.132-.678.096-.973.006-.608-.183-1.325-.9-1.753-.582-.77-.53-1.593-.993-2.435-1.447-1.308-1.48-2.122-2.894-2.68-5.03-.435-1.706.214-2.942.11-4.043 2.306-1.935 4.17-2.584 6.643-2.08zm-4.733 2.77c2.33 1.765 5.75 3.31 8.547 4.31.03.35-.197.472.22.53-.018.15-.263.134-.235.312-3.06.52-6.366-2.55-9.307-3.79.024 2.594.67 3.868 1.805 5.717.917-.358 1.266-.12 1.384.91.56.064.956.346 1.536.062.612.217.49.618.838.98 3.435.802 6.728 1.275 9.816-.314.19-2.707-.6-3.288-1.806-5.71-1.075-.653-2.238-2.08-3.308-2.715-1.288-.76-2.643-1.045-4.09-1.352-1.97-.42-4.24-1.09-5.4 1.062zM71.454 54.634c-.27.083.06.605-.166.722 2.056 3.667 2.54 11.63-3.507 12.182-.43-.23-.314-.333-.99-.133 0-.433-.41-.44-.585-.193-1.02-.797-1.717-2.033-2.886-2.637-.302-.75-.435-1.603-1.054-1.514.296-.55-.666-.482-.298-1.067-2.164-2.32-1.282-4.9-1.023-8.05.914-3.186 4.49-6.423 7.2-4.94-.075.013-.173-.087-.022-.13 2.082 1.34 2 4.146 3.33 5.76zm-7.127 8.268c.037.187.082.38-.072.426.704-.062 1.74.354 1.128 1.083.58 1.02 1.012 1.32 2.06 1.785-1.28-2.953-1.732-8.424-2.672-11.698 1.193-1.82 2.152 1.623 2.327 2.58.172.965.133 2.357.375 3.558.23 1.163.77 2.706.845 3.91.413.366.463.49.45 1.18.695-.404 1.284-.898 1.884-1.388 1.437-4.498-.76-9.535-2.542-13.665-1.678-1.168-3.1.065-4.552 1.22-.634 1.545-1.965 4.09-1.457 6.183-.05.212-.17.37-.348.474.318 1.078 1.52 4.638 2.575 4.352zM20.39 52.634c.55 1.082.87 2.355.767 3.356.383 3.972-2.613 7.69-6.725 9.184-.756.985-3.76.8-4.766.69.082-.01.138-.135-.023-.14-1.234.21-2.345.217-3.18-.922.014.255-.454.15-.514.35-.39-.123-.572-.526-.933-.695-.842-3.855 1.96-6.843 3.765-10.42 1.646-1.457 3.024-3.3 5.144-3.797 1.644-.396 3.215.05 4.667.566-.012-.07.09-.17.136-.016.263.472 1.226.995 1.66 1.844zM6.224 63.166c3.575-1.152 6.275-4.673 8.32-7.738.357-.066.504.25.834.015 1.255.543-.004 1.655-.496 2.306-1.576 2.018-4.575 5.675-6.987 6.427 1.857.137 3.96 1.004 6.494-.25 4.59-2.27 7.038-8.16 3.86-11.68-6.603-2.447-9.556 4.972-11.834 9.362.004.697.027.916-.19 1.556z"/></g></svg>
